<mxfile host="app.diagrams.net" modified="2022-07-07T06:58:49.027Z" agent="5.0 (Windows NT 10.0; Win64; x64) AppleWebKit/537.36 (KHTML, like Gecko) Chrome/103.0.0.0 Safari/537.36" etag="bfnuqDp45VarHJ_L5M-v" version="17.1.5" type="github">
  <diagram id="KdRrgmcPnIb5ruIff-v7" name="第 1 页">
    <mxGraphModel dx="1110" dy="491" grid="1" gridSize="10" guides="1" tooltips="1" connect="1" arrows="1" fold="1" page="1" pageScale="1" pageWidth="827" pageHeight="1169" math="0" shadow="0">
      <root>
        <mxCell id="0" />
        <mxCell id="1" parent="0" />
        <mxCell id="t136My9yQVJ80kGnoq1J-13" value="" style="rounded=0;whiteSpace=wrap;html=1;dashed=1;sketch=1;fillColor=#ffe6cc;strokeColor=#d79b00;" vertex="1" parent="1">
          <mxGeometry x="50" y="180" width="590" height="170" as="geometry" />
        </mxCell>
        <mxCell id="t136My9yQVJ80kGnoq1J-8" style="edgeStyle=orthogonalEdgeStyle;rounded=0;orthogonalLoop=1;jettySize=auto;html=1;exitX=0.5;exitY=1;exitDx=0;exitDy=0;sketch=1;fillColor=#ffe6cc;strokeColor=#d79b00;" edge="1" parent="1" source="t136My9yQVJ80kGnoq1J-1" target="t136My9yQVJ80kGnoq1J-4">
          <mxGeometry relative="1" as="geometry" />
        </mxCell>
        <mxCell id="t136My9yQVJ80kGnoq1J-1" value="产品" style="shape=actor;whiteSpace=wrap;html=1;sketch=1;fillColor=#ffe6cc;strokeColor=#d79b00;" vertex="1" parent="1">
          <mxGeometry x="170" y="90" width="40" height="60" as="geometry" />
        </mxCell>
        <mxCell id="t136My9yQVJ80kGnoq1J-9" style="edgeStyle=orthogonalEdgeStyle;rounded=0;orthogonalLoop=1;jettySize=auto;html=1;entryX=0.5;entryY=0;entryDx=0;entryDy=0;sketch=1;fillColor=#ffe6cc;strokeColor=#d79b00;" edge="1" parent="1" source="t136My9yQVJ80kGnoq1J-2" target="t136My9yQVJ80kGnoq1J-5">
          <mxGeometry relative="1" as="geometry" />
        </mxCell>
        <mxCell id="t136My9yQVJ80kGnoq1J-2" value="开发" style="shape=actor;whiteSpace=wrap;html=1;sketch=1;fillColor=#ffe6cc;strokeColor=#d79b00;" vertex="1" parent="1">
          <mxGeometry x="300" y="90" width="40" height="60" as="geometry" />
        </mxCell>
        <mxCell id="t136My9yQVJ80kGnoq1J-20" style="edgeStyle=orthogonalEdgeStyle;rounded=0;orthogonalLoop=1;jettySize=auto;html=1;entryX=0.5;entryY=0;entryDx=0;entryDy=0;sketch=1;fillColor=#ffe6cc;strokeColor=#d79b00;" edge="1" parent="1" source="t136My9yQVJ80kGnoq1J-3" target="t136My9yQVJ80kGnoq1J-6">
          <mxGeometry relative="1" as="geometry">
            <Array as="points">
              <mxPoint x="500" y="150" />
              <mxPoint x="440" y="150" />
            </Array>
          </mxGeometry>
        </mxCell>
        <mxCell id="t136My9yQVJ80kGnoq1J-21" style="edgeStyle=orthogonalEdgeStyle;rounded=0;orthogonalLoop=1;jettySize=auto;html=1;sketch=1;fillColor=#ffe6cc;strokeColor=#d79b00;" edge="1" parent="1" source="t136My9yQVJ80kGnoq1J-3" target="t136My9yQVJ80kGnoq1J-7">
          <mxGeometry relative="1" as="geometry">
            <Array as="points">
              <mxPoint x="500" y="150" />
              <mxPoint x="570" y="150" />
            </Array>
          </mxGeometry>
        </mxCell>
        <mxCell id="t136My9yQVJ80kGnoq1J-3" value="测试" style="shape=actor;whiteSpace=wrap;html=1;sketch=1;fillColor=#ffe6cc;strokeColor=#d79b00;" vertex="1" parent="1">
          <mxGeometry x="480" y="80" width="40" height="60" as="geometry" />
        </mxCell>
        <mxCell id="t136My9yQVJ80kGnoq1J-10" style="edgeStyle=orthogonalEdgeStyle;rounded=0;orthogonalLoop=1;jettySize=auto;html=1;exitX=1;exitY=0.5;exitDx=0;exitDy=0;entryX=0;entryY=0.5;entryDx=0;entryDy=0;sketch=1;fillColor=#ffe6cc;strokeColor=#d79b00;" edge="1" parent="1" source="t136My9yQVJ80kGnoq1J-4" target="t136My9yQVJ80kGnoq1J-5">
          <mxGeometry relative="1" as="geometry" />
        </mxCell>
        <mxCell id="t136My9yQVJ80kGnoq1J-4" value="定义" style="rounded=0;whiteSpace=wrap;html=1;sketch=1;fillColor=#ffe6cc;strokeColor=#d79b00;" vertex="1" parent="1">
          <mxGeometry x="160" y="210" width="60" height="60" as="geometry" />
        </mxCell>
        <mxCell id="t136My9yQVJ80kGnoq1J-11" style="edgeStyle=orthogonalEdgeStyle;rounded=0;orthogonalLoop=1;jettySize=auto;html=1;exitX=1;exitY=0.5;exitDx=0;exitDy=0;entryX=0;entryY=0.5;entryDx=0;entryDy=0;sketch=1;fillColor=#ffe6cc;strokeColor=#d79b00;" edge="1" parent="1" source="t136My9yQVJ80kGnoq1J-5" target="t136My9yQVJ80kGnoq1J-6">
          <mxGeometry relative="1" as="geometry" />
        </mxCell>
        <mxCell id="t136My9yQVJ80kGnoq1J-5" value="开发" style="rounded=0;whiteSpace=wrap;html=1;sketch=1;fillColor=#ffe6cc;strokeColor=#d79b00;" vertex="1" parent="1">
          <mxGeometry x="290" y="210" width="60" height="60" as="geometry" />
        </mxCell>
        <mxCell id="t136My9yQVJ80kGnoq1J-12" style="edgeStyle=orthogonalEdgeStyle;rounded=0;orthogonalLoop=1;jettySize=auto;html=1;entryX=0;entryY=0.5;entryDx=0;entryDy=0;sketch=1;fillColor=#ffe6cc;strokeColor=#d79b00;" edge="1" parent="1" source="t136My9yQVJ80kGnoq1J-6" target="t136My9yQVJ80kGnoq1J-7">
          <mxGeometry relative="1" as="geometry" />
        </mxCell>
        <mxCell id="t136My9yQVJ80kGnoq1J-6" value="测试" style="rounded=0;whiteSpace=wrap;html=1;sketch=1;fillColor=#ffe6cc;strokeColor=#d79b00;" vertex="1" parent="1">
          <mxGeometry x="410" y="210" width="60" height="60" as="geometry" />
        </mxCell>
        <mxCell id="t136My9yQVJ80kGnoq1J-7" value="上线" style="rounded=0;whiteSpace=wrap;html=1;sketch=1;fillColor=#ffe6cc;strokeColor=#d79b00;" vertex="1" parent="1">
          <mxGeometry x="540" y="210" width="60" height="60" as="geometry" />
        </mxCell>
        <mxCell id="t136My9yQVJ80kGnoq1J-14" value="&lt;font style=&quot;font-size: 14px&quot;&gt;埋点平台&lt;/font&gt;" style="text;html=1;strokeColor=none;fillColor=#ffe6cc;align=center;verticalAlign=middle;whiteSpace=wrap;rounded=0;dashed=1;fontStyle=1;sketch=1;" vertex="1" parent="1">
          <mxGeometry x="60" y="200" width="60" height="30" as="geometry" />
        </mxCell>
        <mxCell id="t136My9yQVJ80kGnoq1J-15" value="&lt;b&gt;&lt;font style=&quot;font-size: 14px&quot;&gt;Jira联动&lt;/font&gt;&lt;/b&gt;" style="text;html=1;strokeColor=none;fillColor=#ffe6cc;align=center;verticalAlign=middle;whiteSpace=wrap;rounded=0;dashed=1;sketch=1;" vertex="1" parent="1">
          <mxGeometry x="254" y="300" width="160" height="30" as="geometry" />
        </mxCell>
        <mxCell id="t136My9yQVJ80kGnoq1J-16" value="业务分析需求" style="text;html=1;strokeColor=#d79b00;fillColor=#ffe6cc;align=center;verticalAlign=middle;whiteSpace=wrap;rounded=0;dashed=1;sketch=1;" vertex="1" parent="1">
          <mxGeometry x="70" y="107.5" width="80" height="25" as="geometry" />
        </mxCell>
      </root>
    </mxGraphModel>
  </diagram>
</mxfile>
